<svg width="240" height="240" viewBox="0 0 240 240" fill="none" xmlns="http://www.w3.org/2000/svg">
<g clip-path="url(#clip0_700_851)">
<path d="M0 5.00048C0 2.23906 2.23858 0.000488281 5 0.000488281H389C391.761 0.000488281 394 2.23906 394 5.00049V384H0V5.00048Z" fill="url(#paint0_linear_700_851)"/>
<path d="M22.985 135.182L39.5667 118.6C45.8364 112.331 53.0135 108.123 61.0981 105.978C69.5126 103.834 77.7622 103.834 85.8468 105.978C94.2614 108.123 101.521 112.248 107.626 118.353L167.518 178.245C168.343 179.07 169.25 179.482 170.24 179.482C171.56 179.482 172.632 179.07 173.457 178.245L213.798 137.904C214.623 137.079 214.953 136.089 214.788 134.934C214.953 133.78 214.623 132.79 213.798 131.965L94.0139 12.1807L126.682 -20.4876L247.704 100.534C253.808 106.638 257.851 113.816 259.83 122.065C261.975 130.48 262.058 138.812 260.078 147.061C258.098 155.311 253.973 162.571 247.704 168.84L204.393 212.151C198.124 218.42 190.864 222.545 182.614 224.525C174.365 226.505 166.033 226.422 157.618 224.277C149.369 222.297 142.191 218.255 136.087 212.151L76.6898 152.754C75.8648 151.929 74.7924 151.516 73.4724 151.516C72.3175 151.351 71.3276 151.681 70.5026 152.506L55.4059 167.603L22.985 135.182ZM-25.5225 183.689L6.89834 151.269L39.3192 183.689L6.89834 216.11L-25.5225 183.689Z" fill="#2E3192"/>
</g>
<defs>
<linearGradient id="paint0_linear_700_851" x1="394" y1="0.000253361" x2="-7.84844e-06" y2="384" gradientUnits="userSpaceOnUse">
<stop stop-color="white"/>
<stop offset="1" stop-color="#F9D2E4"/>
</linearGradient>
<clipPath id="clip0_700_851">
<path d="M0 5C0 2.23857 2.23858 0 5 0H235C237.761 0 240 2.23858 240 5V240H0V5Z" fill="white"/>
</clipPath>
</defs>
</svg>
