
<svg width="240" height="240" viewBox="0 0 240 240" fill="none" xmlns="http://www.w3.org/2000/svg">
<g clip-path="url(#clip0_2802_2)">
<rect width="240" height="240" fill="white"/>
<g clip-path="url(#clip1_2802_2)">
<mask id="mask0_2802_2" style="mask-type:luminance" maskUnits="userSpaceOnUse" x="0" y="0" width="240" height="240">
<path d="M0 5C0 2.23857 2.23858 0 5 0H235C237.761 0 240 2.23858 240 5V240H0V5Z" fill="white"/>
</mask>
<g mask="url(#mask0_2802_2)">
<path d="M0 5.00048C0 2.23906 2.23858 0.000488281 5 0.000488281H389C391.761 0.000488281 394 2.23906 394 5.00049V384H0V5.00048Z" fill="url(#paint0_linear_2802_2)"/>
<path d="M22.9841 135.182L39.5658 118.6C45.8355 112.331 53.0126 108.123 61.0972 105.978C69.5117 103.834 77.7613 103.834 85.8459 105.978C94.2605 108.123 101.52 112.248 107.625 118.353L167.517 178.245C168.342 179.07 169.249 179.482 170.239 179.482C171.559 179.482 172.631 179.07 173.456 178.245L213.797 137.904C214.622 137.079 214.952 136.089 214.787 134.934C214.952 133.78 214.622 132.79 213.797 131.965L94.013 12.1805L126.681 -20.4878L247.703 100.534C253.807 106.638 257.85 113.816 259.829 122.065C261.974 130.48 262.057 138.812 260.077 147.061C258.097 155.311 253.972 162.571 247.703 168.84L204.392 212.151C198.123 218.42 190.863 222.545 182.613 224.525C174.364 226.505 166.032 226.422 157.617 224.277C149.368 222.297 142.19 218.255 136.086 212.151L76.6889 152.754C75.8639 151.929 74.7915 151.516 73.4715 151.516C72.3166 151.351 71.3267 151.681 70.5017 152.506L55.405 167.603L22.9841 135.182ZM-25.5234 183.689L6.8974 151.269L39.3183 183.689L6.8974 216.11L-25.5234 183.689Z" fill="#07AD4E"/>
</g>
</g>
</g>
<defs>
<linearGradient id="paint0_linear_2802_2" x1="394" y1="0.000244677" x2="-1.54762e-05" y2="384" gradientUnits="userSpaceOnUse">
<stop offset="0.085" stop-color="white"/>
<stop offset="1" stop-color="#FFF200"/>
</linearGradient>
<clipPath id="clip0_2802_2">
<rect width="240" height="240" fill="white"/>
</clipPath>
<clipPath id="clip1_2802_2">
<rect width="240" height="240" fill="white"/>
</clipPath>
</defs>
</svg>
